<?xml version="1.0" encoding="UTF-8"?>
<svg width="2000px" height="2000px" viewBox="0 0 2000 2000" version="1.1" xmlns="http://www.w3.org/2000/svg" xmlns:xlink="http://www.w3.org/1999/xlink">
    <!-- Generator: Sketch 48.2 (47327) - http://www.bohemiancoding.com/sketch -->
    <title>Favicon</title>
    <desc>Created with Sketch.</desc>
    <defs></defs>
    <g id="Page-1" stroke="none" stroke-width="1" fill="none" fill-rule="evenodd">
        <g id="Favicon" fill="#000000">
            <g id="Fokal-Logo" transform="translate(-351.000000, 0.000000)">
                <g id="noun_984114_cc">
                    <path d="M2042,1386.45866 L1960.33669,1277 L1812,1476 C1905.58581,1454.98578 1943.84197,1405.10589 2042,1386.45866 Z" id="Shape" fill-rule="nonzero"></path>
                    <path d="M1245,2012 L1071.8177,1789 C873.986421,1789.17458 867.824177,1890.02505 680.457087,1895.4953 L590,2012 L1245,2012 Z" id="Shape" fill-rule="nonzero"></path>
                    <path d="M977,1673.75726 L915.387512,1593 L794,1752 C860.091308,1728.66752 899.539379,1691.06657 977,1673.75726 Z" id="Shape" fill-rule="nonzero"></path>
                    <path d="M578.5,350 C475.200311,350 391,434.083851 391,537.5 C391,640.916149 475.142081,725 578.5,725 C681.857919,725 766,640.974379 766,537.5 C766,434.142081 681.857919,350 578.5,350 Z" id="Shape" fill-rule="nonzero"></path>
                    <path d="M2584.88926,0 L318.11074,0 C142.71148,0 0,142.756384 0,318.081427 L0,1693.91857 C0,1869.35973 142.71148,2012 318.11074,2012 L437.13374,2012 C439.10778,2003.40791 442.7075,1995.1061 448.45544,1987.61705 L865.03594,1451.88874 C877.98332,1435.28511 897.54954,1427.91217 917.11576,1428.55077 C937.0884,1427.56384 957.1191,1434.87873 970.41484,1451.88874 L1328.35474,1912.26211 L1907.61936,1133.6912 C1920.39256,1116.56508 1940.01684,1108.90187 1959.69918,1109.13409 C1979.90406,1108.43743 1999.99282,1116.1587 2012.9402,1133.57509 L2648.92944,1988.66203 C2652.29692,1993.13224 2653.80648,1998.35716 2655.89664,2003.23375 C2797.0405,1970.83925 2903,1844.80261 2903,1693.97663 L2903,318.081427 C2903,142.756384 2760.34658,0 2584.88926,0 Z M577.17446,850.965058 C403.98148,850.965058 263.0118,710.008368 263.0118,536.773293 C263.0118,363.538217 403.98148,222.639582 577.17446,222.639582 C750.4255,222.639582 891.39518,363.538217 891.39518,536.773293 C891.39518,710.008368 750.4255,850.965058 577.17446,850.965058 Z" id="Shape" fill-rule="nonzero"></path>
                    <path d="M2508,2011.88438 L2132.21663,1508.46249 C2129.95462,1508.23125 2127.22861,1508 2125.3146,1508 C1922.02386,1508 1922.02386,1614.37302 1718.90711,1614.37302 C1716.1811,1614.37302 1713.9771,1613.67928 1712.12109,1612.58087 L1414,2012 L2508,2012 L2508,2011.88438 Z" id="Shape" fill-rule="nonzero"></path>
                </g>
            </g>
        </g>
    </g>
</svg>