<?xml version="1.0" encoding="UTF-8"?>
<svg width="2000px" height="2000px" viewBox="0 0 2000 2000" version="1.1" xmlns="http://www.w3.org/2000/svg" xmlns:xlink="http://www.w3.org/1999/xlink">
    <!-- Generator: Sketch 48.2 (47327) - http://www.bohemiancoding.com/sketch -->
    <title>Social</title>
    <desc>Created with Sketch.</desc>
    <defs></defs>
    <g id="Page-1" stroke="none" stroke-width="1" fill="none" fill-rule="evenodd">
        <g id="Social" fill="#000000">
            <g id="Fokal-Logo" transform="translate(279.000000, 500.000000)">
                <g id="noun_984114_cc">
                    <path d="M1015.02101,689.094761 L974.428468,634.691849 L900.694454,733.59841 C947.213338,723.153969 966.229406,698.362768 1015.02101,689.094761 Z" id="Shape" fill-rule="nonzero"></path>
                    <path d="M618.854633,1000 L532.770561,889.16501 C434.434173,889.251781 431.371094,939.376268 338.236161,942.095081 L293.272477,1000 L618.854633,1000 Z" id="Shape" fill-rule="nonzero"></path>
                    <path d="M485.639339,831.887308 L455.013496,791.749503 L394.675164,870.775348 C427.527302,859.17869 447.135833,840.490342 485.639339,831.887308 Z" id="Shape" fill-rule="nonzero"></path>
                    <path d="M287.556149,173.956262 C236.208766,173.956262 194.35515,215.747441 194.35515,267.147117 C194.35515,318.546794 236.179822,360.337972 287.556149,360.337972 C338.932476,360.337972 380.757148,318.575735 380.757148,267.147117 C380.757148,215.776382 338.932476,173.956262 287.556149,173.956262 Z" id="Shape" fill-rule="nonzero"></path>
                    <path d="M1284.87606,0 L158.12394,0 C70.93788,0 0,70.9524771 0,158.09216 L0,841.90784 C0,929.105231 70.93788,1000 158.12394,1000 L217.28694,1000 C218.26818,995.729578 220.0575,991.603428 222.91464,987.881236 L429.98514,721.614681 C436.42092,713.36238 446.14674,709.697897 455.87256,710.015293 C465.8004,709.524771 475.7571,713.1604 482.36604,721.614681 L660.28794,950.428485 L948.22416,563.464812 C954.57336,554.952823 964.32804,551.144069 974.11158,551.259486 C984.15486,550.913235 994.14042,554.750844 1000.5762,563.407104 L1316.70864,988.400612 C1318.38252,990.622385 1319.13288,993.219263 1320.17184,995.643016 C1390.3305,979.542372 1443,916.899905 1443,841.936694 L1443,158.09216 C1443,70.9524771 1372.09098,0 1284.87606,0 Z M286.89726,422.94486 C200.80788,422.94486 130.7358,352.886863 130.7358,266.785931 C130.7358,180.684999 200.80788,110.655856 286.89726,110.655856 C373.0155,110.655856 443.08758,180.684999 443.08758,266.785931 C443.08758,352.886863 373.0155,422.94486 286.89726,422.94486 Z" id="Shape" fill-rule="nonzero"></path>
                    <path d="M1246.65656,999.942533 L1059.86517,749.732849 C1058.74079,749.617915 1057.38577,749.502982 1056.43437,749.502982 C955.384232,749.502982 955.384232,802.372277 854.420588,802.372277 C853.065565,802.372277 851.970014,802.027477 851.047445,801.481544 L702.8598,1000 L1246.65656,1000 L1246.65656,999.942533 Z" id="Shape" fill-rule="nonzero"></path>
                </g>
            </g>
        </g>
    </g>
</svg>